<svg width="48" height="38" viewBox="0 0 48 38" xmlns="http://www.w3.org/2000/svg"><title>B56D6DC2-59DB-417B-B7E2-FE107E4C8431</title><path d="M35.574 19.148l-7.517-2.82v19.15c-2.915.147-4.756 0-4.756 0l-.152-25.83L45.085 19 23.455 0s.307 0-5.676 4.898V1.336l2.76 1.187L17.32.148 10.414 6.53v4.01C7.5 13.952 4.74 15.29 3.052 17.22c-3.99 4.303-3.99 9.35-.46 13.358C5.66 33.844 12.715 38 23.914 38c10.432 0 19.79-4.305 24.085-9.797-3.068 2.227-6.443 4.453-12.426 6.086V19.147zm-27 11.58C2.59 28.5 3.512 24.047 5.2 21.522c1.84-2.82 3.374-3.117 3.374-3.117v12.32zm10.432-6.384l-5.983 1.336v-6.828l5.983-2.375v7.867z" fill="#FFF" fill-rule="evenodd"/></svg>